<svg width="22" height="23" viewBox="0 0 22 23" fill="none" xmlns="http://www.w3.org/2000/svg">
<path fill-rule="evenodd" clip-rule="evenodd" d="M11 2.81818C9.15952 2.81818 7.45816 3.43115 6.09021 4.45507C5.68826 4.75593 5.11852 4.67398 4.81766 4.27203C4.5168 3.87008 4.59875 3.30034 5.0007 2.99948C6.66911 1.75066 8.74957 1 11 1C16.5203 1 21 5.47974 21 11C21 16.5203 16.5203 21 11 21C5.47974 21 1 16.5203 1 11C1 9.19168 1.48002 7.48964 2.33117 6.01765C2.58199 5.58389 3.13649 5.43485 3.57097 5.68441L11.4528 10.2117C11.8882 10.4618 12.0384 11.0174 11.7883 11.4528C11.5382 11.8882 10.9826 12.0384 10.5472 11.7883L3.4955 7.73784C3.05849 8.73775 2.81818 9.84021 2.81818 11C2.81818 15.5161 6.4839 19.1818 11 19.1818C15.5161 19.1818 19.1818 15.5161 19.1818 11C19.1818 6.4839 15.5161 2.81818 11 2.81818Z" fill="currentColor"/>
</svg>
